<svg xmlns="http://www.w3.org/2000/svg" viewBox="0 0 512 512" width="512" height="512">
  <path fill="#1a1a1a" d="M196.52 117.09L196.52 117.09Q208.07 117.09 222.35 119.19Q236.63 121.29 251.75 124.44Q266.87 127.59 280.94 130.84Q295.01 134.10 306.35 136.19Q317.69 138.30 324.41 138.30L324.41 138.30Q332.18 138.30 336.48 135.78Q340.79 133.25 342.47 128.22L342.47 128.22Q343.73 124.65 343.73 120.66Q343.73 116.67 344.15 112.88L344.15 112.88Q345.62 105.32 350.34 100.60Q355.07 95.88 364.10 95.88L364.10 95.88Q371.87 95.88 376.91 101.34Q381.95 106.80 381.95 117.93L381.95 117.93Q381.74 135.56 369.35 146.38Q356.96 157.19 336.17 157.19L336.17 157.19Q326.93 157.19 313.28 154.68Q299.63 152.16 283.98 148.48Q268.34 144.81 252.48 141.24Q236.63 137.67 222.77 135.15Q208.91 132.63 199.25 132.63L199.25 132.63Q181.40 132.63 173.73 138.40Q166.07 144.18 165.86 154.05L165.86 154.05Q165.44 159.09 166.80 162.97Q168.17 166.86 169.64 170.64Q171.11 174.42 171.11 179.25L171.11 179.25Q170.90 186.39 165.65 191.53Q160.40 196.68 151.79 196.68L151.79 196.68Q141.50 196.47 135.41 188.59Q129.32 180.72 130.16 167.28L130.16 167.28Q130.58 152.79 138.24 141.44Q145.91 130.11 160.50 123.60Q175.10 117.09 196.52 117.09ZM217.52 385.25L217.52 385.25Q215.84 390.93 217.73 393.65Q219.62 396.38 224.03 397.44L224.03 397.44L239.78 400.58Q247.34 402.89 246.50 408.14L246.50 408.14Q246.08 412.13 242.72 414.13Q239.36 416.13 233.48 416.13L233.48 416.13L142.97 416.13Q137.72 416.13 135.30 414.02Q132.89 411.93 132.89 408.77L132.89 408.77Q133.10 405.20 135.83 403.11Q138.56 401.00 142.97 399.75L142.97 399.75L157.88 396.81Q162.92 395.75 166.28 392.39Q169.64 389.04 171.95 381.89L171.95 381.89Q174.68 373.07 179.09 357.32Q183.50 341.57 189.06 321.63Q194.63 301.68 200.72 279.52Q206.81 257.37 212.90 235Q218.99 212.64 224.55 192.27Q230.12 171.90 234.63 155.62Q239.15 139.35 241.88 129.48L241.88 129.48L285.14 137.67Q282.20 147.95 277.68 164.23Q273.17 180.50 267.60 200.77Q262.04 221.03 255.95 243.30Q249.86 265.56 243.98 287.29Q238.10 309.02 232.95 328.35Q227.81 347.67 223.71 362.47Q219.62 377.27 217.52 385.25Z"/>
</svg>